<mxfile host="app.diagrams.net" modified="2023-03-31T20:04:15.609Z" agent="Mozilla/5.0 (Windows NT 10.0; Win64; x64) AppleWebKit/537.36 (KHTML, like Gecko) Chrome/111.0.0.0 Safari/537.36" etag="ikAW3L3X-sNzrLFxeEhC" version="21.1.2" type="github">
  <diagram name="PÃ¡gina-1" id="Kjp_8NERkiMA74a9-B92">
    <mxGraphModel dx="1434" dy="796" grid="1" gridSize="10" guides="1" tooltips="1" connect="1" arrows="1" fold="1" page="1" pageScale="1" pageWidth="827" pageHeight="1169" math="0" shadow="0">
      <root>
        <mxCell id="0" />
        <mxCell id="1" parent="0" />
        <mxCell id="t2cJuDSJgVpGk1-xfX3g-1" value="" style="rhombus;whiteSpace=wrap;html=1;" vertex="1" parent="1">
          <mxGeometry x="390" y="220" width="90" height="80" as="geometry" />
        </mxCell>
        <mxCell id="t2cJuDSJgVpGk1-xfX3g-2" value="esta enchufada" style="text;html=1;strokeColor=none;fillColor=none;align=center;verticalAlign=middle;whiteSpace=wrap;rounded=0;" vertex="1" parent="1">
          <mxGeometry x="410" y="240" width="50" height="30" as="geometry" />
        </mxCell>
        <mxCell id="t2cJuDSJgVpGk1-xfX3g-3" value="" style="rounded=0;whiteSpace=wrap;html=1;" vertex="1" parent="1">
          <mxGeometry x="170" y="320" width="110" height="50" as="geometry" />
        </mxCell>
        <mxCell id="t2cJuDSJgVpGk1-xfX3g-4" style="edgeStyle=orthogonalEdgeStyle;rounded=0;orthogonalLoop=1;jettySize=auto;html=1;entryX=0.5;entryY=0;entryDx=0;entryDy=0;" edge="1" parent="1" source="t2cJuDSJgVpGk1-xfX3g-5" target="t2cJuDSJgVpGk1-xfX3g-1">
          <mxGeometry relative="1" as="geometry" />
        </mxCell>
        <mxCell id="t2cJuDSJgVpGk1-xfX3g-5" value="" style="ellipse;whiteSpace=wrap;html=1;" vertex="1" parent="1">
          <mxGeometry x="385" y="110" width="100" height="60" as="geometry" />
        </mxCell>
        <mxCell id="t2cJuDSJgVpGk1-xfX3g-6" value="INICIO" style="text;html=1;strokeColor=none;fillColor=none;align=center;verticalAlign=middle;whiteSpace=wrap;rounded=0;" vertex="1" parent="1">
          <mxGeometry x="400" y="125" width="60" height="30" as="geometry" />
        </mxCell>
        <mxCell id="t2cJuDSJgVpGk1-xfX3g-7" value="" style="endArrow=none;html=1;rounded=0;" edge="1" parent="1">
          <mxGeometry width="50" height="50" relative="1" as="geometry">
            <mxPoint x="330" y="270" as="sourcePoint" />
            <mxPoint x="400" y="270" as="targetPoint" />
          </mxGeometry>
        </mxCell>
        <mxCell id="t2cJuDSJgVpGk1-xfX3g-8" value="" style="endArrow=none;html=1;rounded=0;" edge="1" parent="1">
          <mxGeometry width="50" height="50" relative="1" as="geometry">
            <mxPoint x="470" y="270" as="sourcePoint" />
            <mxPoint x="540" y="270" as="targetPoint" />
          </mxGeometry>
        </mxCell>
        <mxCell id="t2cJuDSJgVpGk1-xfX3g-9" value="si" style="text;html=1;strokeColor=none;fillColor=none;align=center;verticalAlign=middle;whiteSpace=wrap;rounded=0;" vertex="1" parent="1">
          <mxGeometry x="480" y="245" width="60" height="30" as="geometry" />
        </mxCell>
        <mxCell id="t2cJuDSJgVpGk1-xfX3g-10" value="no" style="text;html=1;strokeColor=none;fillColor=none;align=center;verticalAlign=middle;whiteSpace=wrap;rounded=0;" vertex="1" parent="1">
          <mxGeometry x="340" y="245" width="60" height="30" as="geometry" />
        </mxCell>
        <mxCell id="t2cJuDSJgVpGk1-xfX3g-11" style="edgeStyle=orthogonalEdgeStyle;rounded=0;orthogonalLoop=1;jettySize=auto;html=1;exitX=0.5;exitY=1;exitDx=0;exitDy=0;" edge="1" parent="1" source="t2cJuDSJgVpGk1-xfX3g-12" target="t2cJuDSJgVpGk1-xfX3g-20">
          <mxGeometry relative="1" as="geometry">
            <Array as="points">
              <mxPoint x="440" y="440" />
              <mxPoint x="444" y="440" />
            </Array>
          </mxGeometry>
        </mxCell>
        <mxCell id="t2cJuDSJgVpGk1-xfX3g-12" value="" style="rounded=0;whiteSpace=wrap;html=1;" vertex="1" parent="1">
          <mxGeometry x="390" y="350" width="100" height="50" as="geometry" />
        </mxCell>
        <mxCell id="t2cJuDSJgVpGk1-xfX3g-13" value="accionar tecla" style="text;html=1;strokeColor=none;fillColor=none;align=center;verticalAlign=middle;whiteSpace=wrap;rounded=0;" vertex="1" parent="1">
          <mxGeometry x="410" y="360" width="60" height="30" as="geometry" />
        </mxCell>
        <mxCell id="t2cJuDSJgVpGk1-xfX3g-14" value="" style="endArrow=none;html=1;rounded=0;exitX=1;exitY=0;exitDx=0;exitDy=0;" edge="1" parent="1" source="t2cJuDSJgVpGk1-xfX3g-12">
          <mxGeometry width="50" height="50" relative="1" as="geometry">
            <mxPoint x="490" y="320" as="sourcePoint" />
            <mxPoint x="540" y="270" as="targetPoint" />
          </mxGeometry>
        </mxCell>
        <mxCell id="t2cJuDSJgVpGk1-xfX3g-15" value="" style="endArrow=none;html=1;rounded=0;" edge="1" parent="1">
          <mxGeometry width="50" height="50" relative="1" as="geometry">
            <mxPoint x="280" y="320" as="sourcePoint" />
            <mxPoint x="330" y="270" as="targetPoint" />
          </mxGeometry>
        </mxCell>
        <mxCell id="t2cJuDSJgVpGk1-xfX3g-16" value="enchufar" style="text;html=1;strokeColor=none;fillColor=none;align=center;verticalAlign=middle;whiteSpace=wrap;rounded=0;" vertex="1" parent="1">
          <mxGeometry x="190" y="330" width="60" height="30" as="geometry" />
        </mxCell>
        <mxCell id="t2cJuDSJgVpGk1-xfX3g-17" value="" style="endArrow=none;html=1;rounded=0;entryX=0;entryY=0;entryDx=0;entryDy=0;" edge="1" parent="1" target="t2cJuDSJgVpGk1-xfX3g-12">
          <mxGeometry width="50" height="50" relative="1" as="geometry">
            <mxPoint x="280" y="370" as="sourcePoint" />
            <mxPoint x="330" y="320" as="targetPoint" />
          </mxGeometry>
        </mxCell>
        <mxCell id="t2cJuDSJgVpGk1-xfX3g-18" style="edgeStyle=orthogonalEdgeStyle;rounded=0;orthogonalLoop=1;jettySize=auto;html=1;" edge="1" parent="1" source="t2cJuDSJgVpGk1-xfX3g-20">
          <mxGeometry relative="1" as="geometry">
            <mxPoint x="310" y="480" as="targetPoint" />
          </mxGeometry>
        </mxCell>
        <mxCell id="t2cJuDSJgVpGk1-xfX3g-19" style="edgeStyle=orthogonalEdgeStyle;rounded=0;orthogonalLoop=1;jettySize=auto;html=1;exitX=0.5;exitY=1;exitDx=0;exitDy=0;fontFamily=Helvetica;fontSize=12;fontColor=default;" edge="1" parent="1" source="t2cJuDSJgVpGk1-xfX3g-20" target="t2cJuDSJgVpGk1-xfX3g-30">
          <mxGeometry relative="1" as="geometry" />
        </mxCell>
        <mxCell id="t2cJuDSJgVpGk1-xfX3g-20" value="" style="rhombus;whiteSpace=wrap;html=1;" vertex="1" parent="1">
          <mxGeometry x="377.5" y="440" width="125" height="80" as="geometry" />
        </mxCell>
        <mxCell id="t2cJuDSJgVpGk1-xfX3g-21" value="no" style="text;html=1;strokeColor=none;fillColor=none;align=center;verticalAlign=middle;whiteSpace=wrap;rounded=0;" vertex="1" parent="1">
          <mxGeometry x="318" y="460" width="60" height="30" as="geometry" />
        </mxCell>
        <mxCell id="t2cJuDSJgVpGk1-xfX3g-22" value="" style="rounded=0;whiteSpace=wrap;html=1;" vertex="1" parent="1">
          <mxGeometry x="200" y="460" width="110" height="50" as="geometry" />
        </mxCell>
        <mxCell id="t2cJuDSJgVpGk1-xfX3g-23" style="edgeStyle=orthogonalEdgeStyle;rounded=0;orthogonalLoop=1;jettySize=auto;html=1;exitX=0.5;exitY=1;exitDx=0;exitDy=0;" edge="1" parent="1">
          <mxGeometry relative="1" as="geometry">
            <mxPoint x="250" y="495" as="sourcePoint" />
            <mxPoint x="250" y="495" as="targetPoint" />
          </mxGeometry>
        </mxCell>
        <mxCell id="t2cJuDSJgVpGk1-xfX3g-24" value="funciona foco" style="text;html=1;strokeColor=none;fillColor=none;align=center;verticalAlign=middle;whiteSpace=wrap;rounded=0;" vertex="1" parent="1">
          <mxGeometry x="410" y="460" width="60" height="30" as="geometry" />
        </mxCell>
        <mxCell id="t2cJuDSJgVpGk1-xfX3g-25" value="cambiar foco" style="text;html=1;strokeColor=none;fillColor=none;align=center;verticalAlign=middle;whiteSpace=wrap;rounded=0;" vertex="1" parent="1">
          <mxGeometry x="220" y="470" width="60" height="30" as="geometry" />
        </mxCell>
        <mxCell id="t2cJuDSJgVpGk1-xfX3g-26" value="" style="endArrow=none;html=1;rounded=0;fontFamily=Helvetica;fontSize=12;fontColor=default;exitX=1;exitY=0.5;exitDx=0;exitDy=0;" edge="1" parent="1" source="t2cJuDSJgVpGk1-xfX3g-20">
          <mxGeometry width="50" height="50" relative="1" as="geometry">
            <mxPoint x="490" y="490" as="sourcePoint" />
            <mxPoint x="570" y="480" as="targetPoint" />
          </mxGeometry>
        </mxCell>
        <mxCell id="t2cJuDSJgVpGk1-xfX3g-27" value="si" style="text;html=1;strokeColor=none;fillColor=none;align=center;verticalAlign=middle;whiteSpace=wrap;rounded=0;fontSize=12;fontFamily=Helvetica;fontColor=default;" vertex="1" parent="1">
          <mxGeometry x="503" y="460" width="60" height="30" as="geometry" />
        </mxCell>
        <mxCell id="t2cJuDSJgVpGk1-xfX3g-28" style="edgeStyle=orthogonalEdgeStyle;rounded=0;orthogonalLoop=1;jettySize=auto;html=1;exitX=0;exitY=0.5;exitDx=0;exitDy=0;entryX=1;entryY=0.5;entryDx=0;entryDy=0;fontFamily=Helvetica;fontSize=12;fontColor=default;" edge="1" parent="1" source="t2cJuDSJgVpGk1-xfX3g-30" target="t2cJuDSJgVpGk1-xfX3g-32">
          <mxGeometry relative="1" as="geometry" />
        </mxCell>
        <mxCell id="t2cJuDSJgVpGk1-xfX3g-29" style="edgeStyle=orthogonalEdgeStyle;rounded=0;orthogonalLoop=1;jettySize=auto;html=1;fontFamily=Helvetica;fontSize=12;fontColor=default;" edge="1" parent="1" source="t2cJuDSJgVpGk1-xfX3g-30">
          <mxGeometry relative="1" as="geometry">
            <mxPoint x="590" y="660" as="targetPoint" />
          </mxGeometry>
        </mxCell>
        <mxCell id="t2cJuDSJgVpGk1-xfX3g-30" value="" style="rhombus;whiteSpace=wrap;html=1;rounded=0;fontFamily=Helvetica;fontSize=12;fontColor=default;fillColor=none;gradientColor=none;" vertex="1" parent="1">
          <mxGeometry x="373.75" y="610" width="132.5" height="100" as="geometry" />
        </mxCell>
        <mxCell id="t2cJuDSJgVpGk1-xfX3g-31" value="funciona tecla" style="text;html=1;strokeColor=none;fillColor=none;align=center;verticalAlign=middle;whiteSpace=wrap;rounded=0;fontSize=12;fontFamily=Helvetica;fontColor=default;" vertex="1" parent="1">
          <mxGeometry x="414" y="640" width="60" height="30" as="geometry" />
        </mxCell>
        <mxCell id="t2cJuDSJgVpGk1-xfX3g-32" value="" style="rounded=0;whiteSpace=wrap;html=1;fontFamily=Helvetica;fontSize=12;fontColor=default;fillColor=none;gradientColor=none;" vertex="1" parent="1">
          <mxGeometry x="180" y="630" width="120" height="60" as="geometry" />
        </mxCell>
        <mxCell id="t2cJuDSJgVpGk1-xfX3g-33" value="no" style="text;html=1;strokeColor=none;fillColor=none;align=center;verticalAlign=middle;whiteSpace=wrap;rounded=0;fontSize=12;fontFamily=Helvetica;fontColor=default;" vertex="1" parent="1">
          <mxGeometry x="310" y="640" width="60" height="30" as="geometry" />
        </mxCell>
        <mxCell id="t2cJuDSJgVpGk1-xfX3g-34" value="cambiar tecla" style="text;html=1;strokeColor=none;fillColor=none;align=center;verticalAlign=middle;whiteSpace=wrap;rounded=0;fontSize=12;fontFamily=Helvetica;fontColor=default;" vertex="1" parent="1">
          <mxGeometry x="210" y="655" width="60" height="10" as="geometry" />
        </mxCell>
        <mxCell id="t2cJuDSJgVpGk1-xfX3g-35" value="" style="ellipse;whiteSpace=wrap;html=1;rounded=0;fontFamily=Helvetica;fontSize=12;fontColor=default;fillColor=none;gradientColor=none;" vertex="1" parent="1">
          <mxGeometry x="540" y="750" width="120" height="80" as="geometry" />
        </mxCell>
        <mxCell id="t2cJuDSJgVpGk1-xfX3g-36" value="FIN" style="text;html=1;strokeColor=none;fillColor=none;align=center;verticalAlign=middle;whiteSpace=wrap;rounded=0;fontSize=12;fontFamily=Helvetica;fontColor=default;" vertex="1" parent="1">
          <mxGeometry x="570" y="775" width="60" height="30" as="geometry" />
        </mxCell>
        <mxCell id="t2cJuDSJgVpGk1-xfX3g-37" value="" style="endArrow=none;html=1;rounded=0;fontFamily=Helvetica;fontSize=12;fontColor=default;entryX=0.442;entryY=-0.037;entryDx=0;entryDy=0;entryPerimeter=0;" edge="1" parent="1" target="t2cJuDSJgVpGk1-xfX3g-35">
          <mxGeometry width="50" height="50" relative="1" as="geometry">
            <mxPoint x="570" y="480" as="sourcePoint" />
            <mxPoint x="620" y="430" as="targetPoint" />
          </mxGeometry>
        </mxCell>
        <mxCell id="t2cJuDSJgVpGk1-xfX3g-38" value="si" style="text;html=1;strokeColor=none;fillColor=none;align=center;verticalAlign=middle;whiteSpace=wrap;rounded=0;fontSize=12;fontFamily=Helvetica;fontColor=default;" vertex="1" parent="1">
          <mxGeometry x="510" y="640" width="60" height="30" as="geometry" />
        </mxCell>
        <mxCell id="t2cJuDSJgVpGk1-xfX3g-39" value="" style="endArrow=classic;html=1;rounded=0;entryX=0;entryY=1;entryDx=0;entryDy=0;" edge="1" parent="1" target="t2cJuDSJgVpGk1-xfX3g-12">
          <mxGeometry width="50" height="50" relative="1" as="geometry">
            <mxPoint x="200" y="460" as="sourcePoint" />
            <mxPoint x="250" y="410" as="targetPoint" />
          </mxGeometry>
        </mxCell>
        <mxCell id="t2cJuDSJgVpGk1-xfX3g-40" value="" style="endArrow=classic;html=1;rounded=0;entryX=0;entryY=1;entryDx=0;entryDy=0;" edge="1" parent="1" target="t2cJuDSJgVpGk1-xfX3g-20">
          <mxGeometry width="50" height="50" relative="1" as="geometry">
            <mxPoint x="180" y="630" as="sourcePoint" />
            <mxPoint x="230" y="580" as="targetPoint" />
          </mxGeometry>
        </mxCell>
      </root>
    </mxGraphModel>
  </diagram>
</mxfile>
